<svg width="15" height="15" viewBox="0 0 15 15" fill="none" xmlns="http://www.w3.org/2000/svg">
<path d="M9.65892 7.99802L14.6589 2.99801C14.8702 2.77657 14.9865 2.48126 14.9829 2.17522C14.9793 1.86918 14.8561 1.57669 14.6397 1.36027C14.4232 1.14385 14.1308 1.02068 13.8247 1.01708C13.5187 1.01348 13.2234 1.12975 13.0019 1.34101L8.00192 6.34101L3.00192 1.34101C2.89408 1.22798 2.76473 1.13764 2.62147 1.07532C2.47821 1.013 2.32393 0.979945 2.16771 0.978108C2.0115 0.976271 1.85649 1.00569 1.7118 1.06462C1.56712 1.12356 1.43568 1.21083 1.3252 1.3213C1.21473 1.43177 1.12747 1.56321 1.06853 1.7079C1.00959 1.85258 0.980178 2.00759 0.982015 2.16381C0.983852 2.32003 1.0169 2.4743 1.07923 2.61756C1.14155 2.76082 1.23188 2.89017 1.34492 2.99801L6.34492 7.99802L1.34492 12.998C1.13365 13.2195 1.01739 13.5148 1.02099 13.8208C1.02459 14.1268 1.14776 14.4193 1.36418 14.6358C1.5806 14.8522 1.87309 14.9753 2.17913 14.9789C2.48517 14.9825 2.78047 14.8663 3.00192 14.655L8.00192 9.65501L13.0019 14.655C13.2234 14.8663 13.5187 14.9825 13.8247 14.9789C14.1308 14.9753 14.4232 14.8522 14.6397 14.6358C14.8561 14.4193 14.9793 14.1268 14.9829 13.8208C14.9865 13.5148 14.8702 13.2195 14.6589 12.998L9.65892 7.99802Z" fill="#666666"/>
</svg>
