<svg width="13" height="14" viewBox="0 0 13 14" fill="none" xmlns="http://www.w3.org/2000/svg">
<path fill-rule="evenodd" clip-rule="evenodd" d="M10.9231 4.81333C11.1984 4.83599 11.4037 5.07666 11.3817 5.35199C11.3777 5.39733 11.0164 9.87133 10.8084 11.748C10.6791 12.9127 9.90973 13.6213 8.7484 13.6427C7.85973 13.658 7.0024 13.6667 6.1644 13.6667C5.26107 13.6667 4.3804 13.6567 3.50907 13.6387C2.3944 13.6167 1.62307 12.894 1.49707 11.7527C1.28707 9.85933 0.927733 5.39666 0.9244 5.35199C0.901733 5.07666 1.10707 4.83533 1.3824 4.81333C1.65373 4.80599 1.89907 4.99666 1.92107 5.27133C1.92319 5.30026 2.07009 7.12268 2.23017 8.9258L2.26233 9.28563C2.34295 10.1819 2.42468 11.0431 2.49107 11.6427C2.5624 12.2913 2.9124 12.626 3.52973 12.6387C5.1964 12.674 6.89707 12.676 8.7304 12.6427C9.3864 12.63 9.74107 12.302 9.8144 11.638C10.0211 9.77533 10.3811 5.31666 10.3851 5.27133C10.4071 4.99666 10.6504 4.80466 10.9231 4.81333ZM7.5636 0.333527C8.1756 0.333527 8.7136 0.746193 8.8716 1.33753L9.04093 2.17819C9.09565 2.45378 9.3375 2.65503 9.61752 2.65945L11.8053 2.65953C12.0813 2.65953 12.3053 2.88353 12.3053 3.15953C12.3053 3.43553 12.0813 3.65953 11.8053 3.65953L9.63706 3.65943C9.63369 3.65949 9.63032 3.65953 9.62693 3.65953L9.61067 3.65886L2.69441 3.65945C2.68904 3.6595 2.68365 3.65953 2.67827 3.65953L2.668 3.65886L0.5 3.65953C0.224 3.65953 0 3.43553 0 3.15953C0 2.88353 0.224 2.65953 0.5 2.65953L2.68733 2.65886L2.75468 2.6546C3.00554 2.62205 3.21402 2.43153 3.26493 2.17819L3.42693 1.36753C3.5916 0.746193 4.1296 0.333527 4.7416 0.333527H7.5636ZM7.5636 1.33353H4.7416C4.5816 1.33353 4.44093 1.44086 4.40027 1.59486L4.24493 2.37486C4.22519 2.47366 4.19644 2.56887 4.15966 2.65971H8.14574C8.10891 2.56887 8.0801 2.47366 8.06027 2.37486L7.89827 1.56419C7.86427 1.44086 7.7236 1.33353 7.5636 1.33353Z" fill="#F52B2B"/>
</svg>
