<svg width="16" height="11" viewBox="0 0 16 11" fill="none" xmlns="http://www.w3.org/2000/svg">
<path fill-rule="evenodd" clip-rule="evenodd" d="M9.08283 0.929L15.6978 5.0965C15.8803 5.2115 15.9895 5.41067 15.9895 5.62567C15.9895 5.83983 15.8803 6.03983 15.6978 6.154L9.08283 10.3215C8.98199 10.3857 8.86616 10.4182 8.75033 10.4182C8.64616 10.4182 8.54282 10.3915 8.44866 10.3398C8.24866 10.2298 8.12533 10.0207 8.12533 9.79317L8.12449 6.25L1.29199 6.25033C0.946992 6.25033 0.666992 5.97033 0.666992 5.62533C0.666992 5.28033 0.946992 5.00033 1.29199 5.00033L8.12449 5L8.12533 1.45817C8.12533 1.22983 8.24866 1.02067 8.44866 0.910666C8.64782 0.8015 8.89199 0.808166 9.08283 0.929ZM9.37533 2.59067L9.3752 5.61268C9.37528 5.61689 9.37533 5.62111 9.37533 5.62533L9.37449 5.6375L9.37533 8.65983L14.192 5.62567L9.37533 2.59067Z" fill="#252525"/>
</svg>
