<svg width="16" height="11" viewBox="0 0 16 11" fill="none" xmlns="http://www.w3.org/2000/svg">
<path fill-rule="evenodd" clip-rule="evenodd" d="M6.91717 0.929L0.302175 5.0965C0.119675 5.2115 0.0105085 5.41067 0.0105085 5.62567C0.0105085 5.83983 0.119675 6.03983 0.302175 6.154L6.91717 10.3215C7.01801 10.3857 7.13384 10.4182 7.24967 10.4182C7.35384 10.4182 7.45718 10.3915 7.55134 10.3398C7.75134 10.2298 7.87467 10.0207 7.87467 9.79317L7.87551 6.25L14.708 6.25033C15.053 6.25033 15.333 5.97033 15.333 5.62533C15.333 5.28033 15.053 5.00033 14.708 5.00033L7.87551 5L7.87467 1.45817C7.87467 1.22983 7.75134 1.02067 7.55134 0.910666C7.35218 0.8015 7.10801 0.808166 6.91717 0.929ZM6.62467 2.59067L6.6248 5.61268C6.62472 5.61689 6.62467 5.62111 6.62467 5.62533L6.62551 5.6375L6.62467 8.65983L1.80801 5.62567L6.62467 2.59067Z" fill="#252525"/>
</svg>
